<?xml version="1.0" encoding="UTF-8" standalone="no"?>
<svg
   xmlns:dc="http://purl.org/dc/elements/1.1/"
   xmlns:cc="http://creativecommons.org/ns#"
   xmlns:rdf="http://www.w3.org/1999/02/22-rdf-syntax-ns#"
   xmlns:svg="http://www.w3.org/2000/svg"
   xmlns="http://www.w3.org/2000/svg"
   xmlns:sodipodi="http://sodipodi.sourceforge.net/DTD/sodipodi-0.dtd"
   xmlns:inkscape="http://www.inkscape.org/namespaces/inkscape"
   width="48"
   height="48"
   viewBox="0 0 12.7 12.7"
   version="1.1"
   id="svg8"
   inkscape:version="1.0.1 (c497b03c, 2020-09-10)"
   sodipodi:docname="controlpanel-inkscape.svg">
  <defs
     id="defs2" />
  <sodipodi:namedview
     id="base"
     pagecolor="#4a4a55"
     bordercolor="#00ff00"
     borderopacity="1"
     inkscape:pageopacity="0"
     inkscape:pageshadow="2"
     inkscape:zoom="19.528381"
     inkscape:cx="20.67348"
     inkscape:cy="24.333293"
     inkscape:document-units="mm"
     inkscape:current-layer="layer1"
     inkscape:document-rotation="0"
     showgrid="true"
     units="px"
     inkscape:window-width="1620"
     inkscape:window-height="1052"
     inkscape:window-x="0"
     inkscape:window-y="0"
     inkscape:window-maximized="0">
    <inkscape:grid
       type="xygrid"
       id="grid833"
       spacingx="0.052916667"
       spacingy="0.052916667"
       color="#0000ff"
       opacity="0.1254902"
       empcolor="#0000ff"
       empopacity="0.25098039"
       visible="true" />
  </sodipodi:namedview>
  <metadata
     id="metadata5">
    <rdf:RDF>
      <cc:Work
         rdf:about="">
        <dc:format>image/svg+xml</dc:format>
        <dc:type
           rdf:resource="http://purl.org/dc/dcmitype/StillImage" />
        <dc:title></dc:title>
      </cc:Work>
    </rdf:RDF>
  </metadata>
  <g
     inkscape:label="Ebene 1"
     inkscape:groupmode="layer"
     id="layer1">
    <path
       id="rect847"
       style="fill:none;fill-opacity:1;stroke:#fffffe;stroke-width:2.4;stroke-linecap:round;stroke-linejoin:round;stroke-miterlimit:4;stroke-dasharray:none;stroke-opacity:1"
       d="M 20.507812 5.1972656 L 20.507812 9.7949219 A 14.617881 14.61788 0 0 0 16.414062 11.492188 L 16.410156 11.492188 L 13.160156 8.2382812 L 8.2382812 13.160156 L 11.492188 16.414062 A 14.617881 14.61788 0 0 0 9.7929688 20.507812 L 5.1972656 20.507812 L 5.1972656 27.46875 L 9.7929688 27.46875 A 14.617881 14.61788 0 0 0 11.492188 31.564453 L 8.2382812 34.818359 L 13.160156 39.740234 L 16.410156 36.490234 A 14.617881 14.61788 0 0 0 20.507812 38.185547 L 20.507812 42.785156 L 27.46875 42.785156 L 27.46875 38.185547 A 14.617881 14.61788 0 0 0 31.568359 36.490234 L 34.818359 39.740234 L 39.740234 34.818359 L 36.490234 31.568359 A 14.617881 14.61788 0 0 0 38.185547 27.46875 L 42.785156 27.46875 L 42.785156 20.507812 L 38.185547 20.507812 A 14.617881 14.61788 0 0 0 36.490234 16.410156 L 39.740234 13.160156 L 34.818359 8.2382812 L 31.568359 11.488281 A 14.617881 14.61788 0 0 0 27.46875 9.7949219 L 27.46875 5.1972656 L 20.507812 5.1972656 z M 24.007812 16.332031 A 7.6569853 7.6569849 0 0 1 31.640625 23.703125 L 31.646484 23.988281 A 7.6569853 7.6569849 0 0 1 24.060547 31.646484 A 7.6569853 7.6569849 0 0 1 16.335938 24.134766 A 7.6569853 7.6569849 0 0 1 23.775391 16.333984 L 23.775391 16.335938 A 7.6569853 7.6569849 0 0 1 24.007812 16.332031 z "
       transform="scale(0.26458333)" />
  </g>
</svg>
