<?xml version="1.0" encoding="UTF-8" standalone="no"?>
<svg
   xmlns:dc="http://purl.org/dc/elements/1.1/"
   xmlns:cc="http://creativecommons.org/ns#"
   xmlns:rdf="http://www.w3.org/1999/02/22-rdf-syntax-ns#"
   xmlns:svg="http://www.w3.org/2000/svg"
   xmlns="http://www.w3.org/2000/svg"
   xmlns:sodipodi="http://sodipodi.sourceforge.net/DTD/sodipodi-0.dtd"
   xmlns:inkscape="http://www.inkscape.org/namespaces/inkscape"
   width="48"
   height="48"
   viewBox="0 0 12.7 12.7"
   version="1.1"
   id="svg8"
   inkscape:version="1.0.1 (c497b03c, 2020-09-10)"
   sodipodi:docname="controlpanel-inkscape.svg">
  <defs
     id="defs2" />
  <sodipodi:namedview
     id="base"
     pagecolor="#4a4a55"
     bordercolor="#00ff00"
     borderopacity="1"
     inkscape:pageopacity="0"
     inkscape:pageshadow="2"
     inkscape:zoom="17.001853"
     inkscape:cx="20.67348"
     inkscape:cy="24.333293"
     inkscape:document-units="mm"
     inkscape:current-layer="layer1"
     inkscape:document-rotation="0"
     showgrid="true"
     units="px"
     inkscape:window-width="1620"
     inkscape:window-height="1052"
     inkscape:window-x="0"
     inkscape:window-y="0"
     inkscape:window-maximized="0">
    <inkscape:grid
       type="xygrid"
       id="grid833"
       spacingx="0.21166667"
       spacingy="0.21166667"
       color="#0000ff"
       opacity="0.1254902"
       empcolor="#0000ff"
       empopacity="0.25098039"
       visible="true" />
  </sodipodi:namedview>
  <metadata
     id="metadata5">
    <rdf:RDF>
      <cc:Work
         rdf:about="">
        <dc:format>image/svg+xml</dc:format>
        <dc:type
           rdf:resource="http://purl.org/dc/dcmitype/StillImage" />
        <dc:title></dc:title>
      </cc:Work>
    </rdf:RDF>
  </metadata>
  <g
     inkscape:label="Ebene 1"
     inkscape:groupmode="layer"
     id="layer1">
    <path
       id="rect847"
       style="fill:none;fill-opacity:1;stroke:#fffffe;stroke-width:2.40000003;stroke-linecap:round;stroke-linejoin:round;stroke-miterlimit:4;stroke-dasharray:none;stroke-opacity:1"
       d="m 20.507812,5.1972656 v 4.5976563 c -1.442911,0.3544181 -2.823354,0.9267491 -4.09375,1.6972661 h -0.0039 l -3.25,-3.2539068 -4.9218748,4.9218748 3.2539068,3.253906 c -0.771199,1.270279 -1.344191,2.650728 -1.6992192,4.09375 H 5.1972656 v 6.960938 h 4.5957032 c 0.3548402,1.443698 0.9278382,2.824819 1.6992192,4.095703 l -3.2539068,3.253906 4.9218748,4.921875 3.25,-3.25 c 1.271723,0.7702 2.653504,1.341881 4.097656,1.695313 v 4.599609 h 6.960938 v -4.599609 c 1.444828,-0.353244 2.827281,-0.92493 4.099609,-1.695313 l 3.25,3.25 4.921875,-4.921875 -3.25,-3.25 c 0.770383,-1.272328 1.342069,-2.654781 1.695313,-4.099609 h 4.599609 V 20.507812 H 38.185547 C 37.832115,19.06366 37.260434,17.681879 36.490234,16.410156 l 3.25,-3.25 -4.921875,-4.9218748 -3.25,3.2499998 C 30.295914,10.71858 28.913467,10.147555 27.46875,9.7949219 V 5.1972656 Z"
       transform="scale(0.26458333)"
       sodipodi:nodetypes="cccccccccccccccccccccccccccccccccc" />
    <path
       style="fill:none;stroke:#ffffff;stroke-width:0.635;stroke-linecap:round;stroke-linejoin:round;stroke-miterlimit:4;stroke-dasharray:none;stroke-opacity:1;paint-order:markers stroke fill"
       id="path851"
       sodipodi:type="arc"
       sodipodi:cx="6.3510451"
       sodipodi:cy="6.4056377"
       sodipodi:rx="1.4816667"
       sodipodi:ry="1.4816667"
       sodipodi:start="0"
       sodipodi:end="6.2456258"
       sodipodi:open="true"
       sodipodi:arc-type="arc"
       d="M 7.8327118,6.4056377 A 1.4816667,1.4816667 0 0 1 6.3649576,7.8872391 1.4816667,1.4816667 0 0 1 4.8696397,6.4334614 1.4816667,1.4816667 0 0 1 6.3093126,4.9245589 1.4816667,1.4816667 0 0 1 7.8316668,6.3500002" />
  </g>
</svg>
