<?xml version="1.0" encoding="UTF-8" standalone="no"?> <!-- Created with Vectornator for iOS (http://vectornator.io/) --><!DOCTYPE svg PUBLIC "-//W3C//DTD SVG 1.1//EN" "http://www.w3.org/Graphics/SVG/1.1/DTD/svg11.dtd">
<svg height="100%" style="fill-rule:evenodd;clip-rule:evenodd;stroke-linecap:round;stroke-linejoin:round;" xmlns:xlink="http://www.w3.org/1999/xlink" xmlns="http://www.w3.org/2000/svg" xml:space="preserve" width="100%" xmlns:vectornator="http://vectornator.io" version="1.1" viewBox="0 0 12.7 12.7">
<metadata>
<vectornator:setting key="Units" value="Points"/>
<vectornator:setting key="GuidesVisible" value="1"/>
<vectornator:setting key="RulersVisible" value="1"/>
<vectornator:setting key="SnapToGuides" value="1"/>
<vectornator:setting key="DynamicGuides" value="1"/>
</metadata>
<defs/>
<g id="layer1" vectornator:layerName="layer1">
<path d="M3.175+11.6417L3.175+6.35L1.05833+6.35L6.35+1.05833L11.6417+6.35L9.525+6.35L9.525+11.6417L7.40833+11.6417L7.40833+8.46667C7.40833+8.46667+7.40833+9.525+7.40833+8.46667C7.40833+7.40833+6.35+7.40833+6.35+7.40833C6.35+7.40833+7.40833+7.40833+6.35+7.40833C5.29167+7.40833+5.29167+8.46667+5.29167+8.46667L5.29167+11.6417L3.175+11.6417Z" opacity="1" fill="none"/>
<path stroke="#ffffff" stroke-width="0.635" d="M6.34845+0.445554L0.445507+6.34799L2.49879+6.34799L2.49879+12.2504L5.06523+12.2504L5.06523+8.91421C5.06523+8.91421+5.06523+7.6311+6.34845+7.6311C6.34845+7.6311+7.63167+7.6311+7.63167+8.91421C7.63167+8.91421+7.63167+9.23499+7.63167+9.39538L7.63167+12.2504L10.1981+12.2504L10.1981+6.34799L12.2514+6.34799L6.34845+0.445554Z" fill="none" stroke-linecap="round" opacity="1" stroke-linejoin="round"/>
</g>
</svg>
