<?xml version="1.0" encoding="UTF-8" standalone="no"?>
<svg
   xmlns:dc="http://purl.org/dc/elements/1.1/"
   xmlns:cc="http://creativecommons.org/ns#"
   xmlns:rdf="http://www.w3.org/1999/02/22-rdf-syntax-ns#"
   xmlns:svg="http://www.w3.org/2000/svg"
   xmlns="http://www.w3.org/2000/svg"
   xmlns:sodipodi="http://sodipodi.sourceforge.net/DTD/sodipodi-0.dtd"
   xmlns:inkscape="http://www.inkscape.org/namespaces/inkscape"
   width="48"
   height="48"
   viewBox="0 0 12.7 12.7"
   version="1.1"
   id="svg8"
   inkscape:version="1.0.1 (c497b03c, 2020-09-10)"
   sodipodi:docname="home-inkscape.svg">
  <defs
     id="defs2" />
  <sodipodi:namedview
     id="base"
     pagecolor="#4a4a55"
     bordercolor="#00ff00"
     borderopacity="1"
     inkscape:pageopacity="0"
     inkscape:pageshadow="2"
     inkscape:zoom="17.177137"
     inkscape:cx="23.892051"
     inkscape:cy="24"
     inkscape:document-units="mm"
     inkscape:current-layer="layer1"
     inkscape:document-rotation="0"
     showgrid="true"
     units="px"
     inkscape:window-width="1620"
     inkscape:window-height="1052"
     inkscape:window-x="0"
     inkscape:window-y="0"
     inkscape:window-maximized="0">
    <inkscape:grid
       type="xygrid"
       id="grid833"
       color="#0000ff"
       opacity="0.1254902"
       empcolor="#0000ff"
       empopacity="0.25098039"
       spacingx="0.21166667"
       spacingy="0.21166667" />
  </sodipodi:namedview>
  <metadata
     id="metadata5">
    <rdf:RDF>
      <cc:Work
         rdf:about="">
        <dc:format>image/svg+xml</dc:format>
        <dc:type
           rdf:resource="http://purl.org/dc/dcmitype/StillImage" />
        <dc:title />
      </cc:Work>
    </rdf:RDF>
  </metadata>
  <g
     inkscape:label="Ebene 1"
     inkscape:groupmode="layer"
     id="layer1">
    <path
       style="fill:none;stroke:#ffffee;stroke-width:0;stroke-linecap:round;stroke-linejoin:round;stroke-opacity:1;stroke-miterlimit:4;stroke-dasharray:none"
       d="M 3.175,11.641667 V 6.3499999 H 1.0583333 L 6.3499999,1.0583333 11.641667,6.3499999 H 9.5250001 V 11.641667 H 7.4083332 V 8.4666668 c 0,0 0,1.0583333 0,0 0,-1.0583336 -1.0583333,-1.0583336 -1.0583333,-1.0583336 0,0 1.0583333,0 0,0 -1.0583333,0 -1.0583333,1.0583336 -1.0583333,1.0583336 v 3.1750002 z"
       id="path851" />
    <path
       id="path853"
       style="fill:none;stroke:#ffffff;stroke-width:2.77795279;stroke-linecap:round;stroke-linejoin:round;stroke-opacity:1;stroke-miterlimit:4;stroke-dasharray:none"
       d="M 24 5.5996094 L 5.5996094 24 L 12 24 L 12 42.400391 L 20 42.400391 L 20 32 C 20 32 20 28 24 28 C 24 28 28 27.999999 28 32 C 28 32 28 33 28 33.5 L 28 42.400391 L 36 42.400391 L 36 24 L 42.400391 24 L 24 5.5996094 z "
       transform="scale(0.26458333)" />
  </g>
</svg>
